<?xml version="1.0" encoding="utf-8"?>
<!-- Generator: Adobe Illustrator 14.0.0, SVG Export Plug-In . SVG Version: 6.00 Build 43363)  -->
<!DOCTYPE svg PUBLIC "-//W3C//DTD SVG 1.1//EN" "http://www.w3.org/Graphics/SVG/1.1/DTD/svg11.dtd">
<svg version="1.1" id="Layer_1" xmlns="http://www.w3.org/2000/svg" xmlns:xlink="http://www.w3.org/1999/xlink" x="0px" y="0px"
	 width="1641.891px" height="1095.279px" viewBox="0 0 1641.891 1095.279" enable-background="new 0 0 1641.891 1095.279"
	 xml:space="preserve">
<path id="Facebook" fill="#D1CECC" d="M534.945,62.14c-144.463,0-261.641,231.35-261.641,516.57s117.178,516.569,261.641,516.569
	c144.462,0,261.64-231.349,261.64-516.569S679.407,62.14,534.945,62.14z M665.578,808.214c0,15.867-6.541,28.411-14.39,28.411
	h-66.531V636.639h34.013l5.046-77.854h-39.059v-49.812c0-22.507,3.177-38.004,19.623-38.004h20.932V401.6
	c-3.551-1.107-16.072-2.952-30.463-2.952c-30.088,0-50.646,36.16-50.646,102.945v57.56h-34.014v77.854h34.014v199.987H418.888
	c-8.036,0-14.39-12.914-14.39-28.411V349.205c0-15.866,6.542-28.411,14.39-28.411h232.486c8.035,0,14.39,12.914,14.39,28.411
	v459.009H665.578z"/>
</svg>
