<?xml version="1.0" encoding="utf-8"?>
<!-- Generator: Adobe Illustrator 14.0.0, SVG Export Plug-In  -->
<!DOCTYPE svg PUBLIC "-//W3C//DTD SVG 1.1//EN" "http://www.w3.org/Graphics/SVG/1.1/DTD/svg11.dtd" [
	<!ENTITY ns_flows "http://ns.adobe.com/Flows/1.0/">
]>
<svg version="1.1"
	 xmlns="http://www.w3.org/2000/svg" xmlns:xlink="http://www.w3.org/1999/xlink" xmlns:a="http://ns.adobe.com/AdobeSVGViewerExtensions/3.0/"
	 x="0px" y="0px" width="1642px" height="1095px" viewBox="-1.61 -1.587 1642 1095" enable-background="new -1.61 -1.587 1642 1095"
	 xml:space="preserve">
<defs>
</defs>
<g>
	<g>
		<path fill-rule="evenodd" clip-rule="evenodd" fill="#777777" d="M13.089,0.35c1.173-0.187,2.781,0.83,3.633,1.27
			c2.67,1.379,5.138,2.771,7.486,4.553c0.4,0.303,1.104,0.789,1.27,1.138c0.383,0.805,0.364,2.21,0.438,3.283
			c0.159,2.338,0.165,4.854,0,7.267c-0.075,1.091-0.085,2.505-0.438,3.239c-0.387,0.805-1.926,1.603-2.67,2.101
			c-1.846,1.237-3.978,2.487-5.997,3.502c-1.016,0.511-2.126,1.223-3.327,1.401c-0.508,0.075-1.263-0.335-1.882-0.613
			c-2.767-1.244-5.159-2.628-7.661-4.247c-0.397-0.256-0.898-0.626-1.401-1.006c-0.415-0.313-1.103-0.806-1.226-1.226
			c-0.577-1.972-0.525-4.273-0.525-6.829c0-1.961-0.095-5.333,0.525-6.785c0.361-0.846,1.735-1.621,2.54-2.146
			C5.825,3.966,7.65,2.91,9.762,1.795C10.745,1.275,11.823,0.553,13.089,0.35z M10.199,5.647C9.421,6.08,8.611,6.86,8.098,7.704
			C8.344,7.809,8.76,7.743,9.018,7.836c0.158,3.86,0.037,8.272,0.087,11.95c0.648,0.041,1.61,0.126,2.145,0
			c0.064-1.307-0.097-2.761-0.044-4.202c1.445,0.029,3.006-0.059,4.378,0.043c0.032,1.71-0.05,3.306-0.044,4.991
			c-0.334-0.014-0.635,0.007-0.919,0.044c0.383,0.828,1.231,1.57,2.058,2.101c0.782-0.576,1.494-1.22,2.014-2.058
			c-0.234-0.13-0.697-0.033-0.963-0.131c-0.185-3.811-0.011-7.925,0-11.644c-0.632-0.071-1.557-0.075-2.189,0
			c-0.074,1.505,0.068,3.17,0.044,4.771c-1.459,0-2.918,0-4.378,0c-0.005-2.02-0.012-4.04,0.131-5.91
			c0.349,0.013,0.639-0.032,0.919-0.088C11.729,6.861,11.011,6.207,10.199,5.647z"/>
	</g>
</g>
</svg>
